<svg xmlns="http://www.w3.org/2000/svg" viewBox="0 0 370.16 264.97"><defs><style>.cls-1,.cls-3{fill:#468446;}.cls-2{fill:none;stroke:#468446;stroke-linecap:round;stroke-linejoin:round;stroke-width:2px;}.cls-3{font-size:27.7px;font-family:Sansita-Bold, Sansita;font-weight:700;}</style></defs><title>Fichier 1</title><g id="Calque_2" data-name="Calque 2"><g id="Calque_1-2" data-name="Calque 1"><path class="cls-1" d="M0,13.26A43,43,0,0,1,2.91,16.7C21.1,42.92,46.41,57.51,77.62,62.35c26.11,4,51.94.88,77.73-3.28C191.78,53.19,227.15,42.94,262.6,33c10.82-3,21.81-5.47,32.74-8.15a23.59,23.59,0,0,1,3.65-.52c11.39-.89,12.92.08,17.54,11.47l-11.66,3.77c-2.29.73-3.31,1.89-2.1,4.44,7.08,14.89,14.06,29.82,21.1,44.72a26.18,26.18,0,0,0,2.42,3.18c4-4.67,7.64-9,11.15-13.11.53,1,1.21,2.49,2.06,3.88,2.74,4.5,1.7,9.08-1.28,12.48-5.54,6.34-11.32,12.69-17.92,17.85-22.78,17.8-47.93,32-73.06,46.09-17.33,9.73-35,18.88-52.49,28.3a7.63,7.63,0,0,0-2.93,2.46c6.66-1.2,13.33-2.35,20-3.61,40.15-7.63,79.8-4.46,119,5.8,13.24,3.47,26.23,7.88,39.33,11.86v7.4c-1.3.14-3-.23-3.81.48-6.62,6.06-13.05,12.31-19.74,18.69,4.21,3.33,8,6.16,11.6,9.2,4.06,3.41,8,7,12,10.5V265c-8.07-8.62-15.12-18.55-24.36-25.64-39.46-30.24-83.65-41.77-133-31.51-44.21,9.19-86.37,24.83-128.71,40-5.21,1.87-10.52,3.5-15.73,5.4-2.73,1-4.59.55-6.16-2.06s-3.56-5-5.81-8.06c7.74-4.81,15.15-9.43,22.58-14,5.24-3.23,5.45-3.82,2.24-8.91Q67.63,198.68,54,177.26c-2.86-4.49-3.79-4.82-7.19-1-6.32,7.09-12.21,14.56-18.27,21.87-.67.8-1.32,1.61-2,2.45-7.38-7.91-7.93-12.29-2.5-21.49,6.72-11.4,16.76-19.67,27-27.57C77.75,131,106.82,114.1,136,97.4c7.88-4.51,16-8.7,23.93-13.06a6,6,0,0,0,2.72-2.68c-3.51.66-7,1.2-10.52,2-3.06.72-5.92,1.17-8.31-1.48,0-5.32,0-10.63,0-16.44-8.62,1-16,1.69-23.25,2.69a3.59,3.59,0,0,0-2.28,2.61c0,4.41.37,8.83.65,13.83,4.64-.6,8.73-1.19,12.82-1.64s8.09-.74,12.14-1.11c-.51,1.06-.88,2.95-1.54,3.06C98,92.51,53.54,96.35,9.22,84.65,6.1,83.83,3.07,82.72,0,81.74V73.41c3.44,1.32,6.85,2.77,10.36,3.88,1,.33,3.06.11,3.5-.58,5.05-7.85,9.87-15.84,14.31-23.06-8.36-7-16.08-13.52-24-19.85-.88-.71-2.76-.15-4.18-.18ZM261.29,131.93c-.69-1.69-1-2.71-1.51-3.67-8.94-17.91-17.95-35.78-26.8-53.74-1.74-3.53-3.57-4.33-7.21-2.44q-41.19,21.44-82.53,42.57c-3.58,1.83-4.18,3.73-2.18,7.26q15.09,26.76,29.86,53.71c2.09,3.82,4.41,4.57,8.19,2.4,7.22-4.14,14.56-8,21.86-12q28-15.28,56-30.6A32.11,32.11,0,0,0,261.29,131.93ZM90.2,222.5c1.6-.78,2.72-1.29,3.81-1.86L160.38,186c4.85-2.53,5.23-3.77,2.43-8.63-9.83-17.11-19.75-34.17-29.44-51.36-2.14-3.79-4.33-4.2-7.78-2-6.63,4.23-13.4,8.23-20,12.45Q82.34,151.3,59.22,166.22c-2.1,1.35-4.39,2.68-2.39,5.82,10.16,16,20.28,32.05,30.5,48C88,221.12,89.3,221.76,90.2,222.5ZM323.09,92.84c-.47-1.27-.68-2-1-2.71q-11.19-22.78-22.41-45.57c-1.51-3.07-3.74-3.21-6.53-2-16.9,7.44-33.78,14.93-50.75,22.2-3.46,1.49-4,3.34-2.44,6.41q13.26,26.69,26.44,53.39c1.32,2.71,2.89,3.28,5.45,1.68q24.24-15.2,48.51-30.4C321.51,95.13,322.28,93.75,323.09,92.84ZM15.9,80c11,2,20.92,3.89,30.89,5.55A3.8,3.8,0,0,0,50,83.91c2.66-6.3,5.05-12.73,7.46-19L30.93,54.53ZM344,228.51l19-20.27c-9.72-3.21-19.77-6.56-29.85-9.8-.85-.28-2.44-.14-2.87.42-4,5.33-7.84,10.79-11.67,16.13ZM52.36,86.76c10.33.27,19.67.58,29,.67a3.64,3.64,0,0,0,2.76-2.12c1-5.24,1.61-10.54,2.38-16L60.24,65.44ZM289.48,205.21c8.39,2.87,16.2,5.59,24.07,8.14a3.44,3.44,0,0,0,3.08-.69c3.67-5.07,7.12-10.29,11.19-16.28-10.35-2.27-19.9-4.42-29.5-6.35-.88-.18-2.57.91-3,1.83C293.24,196.12,291.48,200.54,289.48,205.21ZM87,87.58c9.39-.77,18.21-1.45,27-2.3a2.88,2.88,0,0,0,1.77-2.11c.16-4.69.08-9.38.08-14-9,0-16.8,0-24.6.08A2.88,2.88,0,0,0,89.11,71C88.31,76.22,87.74,81.51,87,87.58ZM286.86,204.7l6.54-16.24c-9.34-.82-17.86-1.62-26.39-2.21a3.16,3.16,0,0,0-2.43,1.9c-.84,4-1.35,8-2,12.09ZM148.08,80.77l25.18-4.46c-1.38-5.45-2.56-10.13-3.81-15.06l-23.9,4.18C146.41,70.64,147.2,75.42,148.08,80.77Zm111.8,119.29c.69-4.89,1.33-9.45,1.91-13.63H235.25c.74,5.11,1.36,9.3,2,13.63Zm-71.4,9.17,22-5.18c-1.53-4.58-2.91-8.73-4.42-13.26l-22.81,4.62Zm44.16-22.59-24,3.74,4.34,13.2,22-3.06Zm-46.5,23.19c-1.41-3.82-2.83-7.18-3.89-10.66-.84-2.76-2.53-3.39-4.84-2.32-6.06,2.8-12,5.79-18.23,8.79,1.86,3.8,3.4,6.93,5,10.17Zm9.19-153.7L172,60.81c1.3,5.26,2.45,9.94,3.7,15l22.56-11.16C197.3,61.83,196.45,59.38,195.33,56.13ZM157.22,206.76l-21.37,10.66c2.89,2.05,5.14,4.9,6.75,4.57,6.39-1.32,12.58-3.63,19.2-5.68ZM221.76,53.88l.72-1.46c-1.16-.66-2.47-2.06-3.45-1.86-7,1.45-13.94,3.23-21.39,5l3.11,8ZM135,217.67l-19.86,9.71c2.57,3,16,0,22.86-4.59ZM167.79,85.93c-7.42,2.64-7.64,4.6-1.44,10.79l5.44-3.25ZM146.72,96.86c1.66,2.91,3,5.26,4.5,7.9l6.11-3.46-4.51-8Zm-7.92,4.61c-7.19,3.21-7.29,4.42-1.34,11l5.45-3.29C141.44,106.41,140.18,104,138.8,101.47ZM122.75,121l5.48-3.55c-1.61-2.8-2.95-5.11-4.25-7.36C116.88,112.73,116.8,113.37,122.75,121ZM180.1,89.51,186.36,86c-1.56-2.83-2.87-5.19-4.31-7.79l-6,3.1Zm19,90.66c-2.78-8.3-4-8.83-9.19-4.06C193.33,184,193.33,184,199.1,180.17Zm8.57-4.28,5.82-3.08-4.1-7.79-6.07,3.33Zm15.66-18.32-6,3.32,4.26,7.54,5.65-3.16ZM108.5,128.29c7.09-2,7.24-3.46,1.21-10.46l-5.28,3.32C105.93,123.78,107.13,125.9,108.5,128.29Zm72.88,51.33-5.64,3.21c3.72,8.6,4.43,8.88,9.58,3.92ZM101.7,133.19l-4.62-7.72-5.47,3.62,4.71,7.39C98.2,135.32,99.62,134.46,101.7,133.19ZM237,150.24l-5.76,3.24c1.49,2.69,2.76,5,4.17,7.56l5.51-3.3C239.51,155.11,238.4,153,237,150.24ZM89.21,140.78l-4.45-7.51-5.17,3.34,4.48,7.46Zm164.86,9.85-4-7.66L244.65,146l3.9,7.57ZM218.94,60.4c2.63,7.83,3.36,8.26,8.75,5.07-1.12-2.34-2.26-4.71-3.52-7.32Zm47.73,83-3.77-7.2c-6.17,2.48-6.23,3.12-1.29,10.13Zm-95.85,50.55-3.94-6.69-5.29,3C163.93,196.7,164.79,197,170.82,193.91ZM73.09,140.8l-4.8,3.35,4.49,7.25,4.71-3.29Zm202-12.29-4.86,3.32c1.35,2.56,2.52,4.79,3.85,7.3l4.77-3.06Zm-42.69-74L236.32,62l5.12-2.31-3.85-7.44ZM128.3,207.32l-5.09,2.56c1.5,2.53,2.79,4.68,4.27,7.16l4.86-2.83C130.9,211.74,129.75,209.8,128.3,207.32Zm-66-48.73,4.35-3.25c-1.49-2.4-2.83-4.57-4.43-7.13l-4.34,3.29ZM249.54,47l-4.82,2.38,3.79,7.44,4.59-2.34C251.91,52,250.87,49.84,249.54,47ZM285.18,132c5.18-2.16,5.2-4.17.31-9.25C280.75,125.09,280.75,125.09,285.18,132ZM111.92,215.49c4,7.9,4,7.9,8.59,4.21-1.3-2.09-2.63-4.22-4.07-6.55ZM263.49,50.27c-2.27-7.64-2.82-8-7.22-5l3.32,6.61ZM52.88,165.12c4.63-3,4.36-4.83-1.26-9.51l-3.19,2.66Zm170.7-115.7c2,2.93,11,.39,18-4.65ZM101.76,220.82c3,7.22,3.51,7.53,7.91,4.33l-4.11-6.5Zm193.75-95.2c4.5-2.44,4.5-2.87.18-8.75C291.18,118.78,291.16,119.26,295.51,125.62ZM194.24,82c1.58-.66,2.41-.8,2.94-1.27a40.15,40.15,0,0,0,2.82-3c-1.31-.61-2.61-1.23-3.92-1.82s-2.57-1.08-4.44-1.87C192.5,76.69,193.3,79.11,194.24,82ZM92.21,225.7c3.59,7.17,3.69,7.22,8,4.05C97.2,228.78,98.26,221.9,92.21,225.7ZM304.84,110.59c-6,3.83-1,6.28-.43,9.41C310.3,116.83,305.47,114.17,304.84,110.59ZM44.5,171.73c4-2.62,3.78-3.75-1.38-8.61C38.1,167.09,43.66,168.9,44.5,171.73ZM265.55,41.91l6.36,5.16a26.46,26.46,0,0,0-.51-5.38C270.45,38.51,268.62,39.41,265.55,41.91ZM137.24,206.21c2.06,5.19,2.19,5.22,6.92,1.88C142.54,204.24,142.54,204.24,137.24,206.21Zm-22.15,24.68c-3-2.3-8.41-.45-15.25,4.75Zm97.28-162c-1.46-5-2.06-5.11-7-1.6C207,70.71,207.17,70.76,212.37,68.9Zm100.26,36.24c-5.24,3.9-.89,6.24-.22,9.47C317.64,111.27,313,108.77,312.63,105.14ZM36.87,168.93c-4.45,4.89.17,6.33,1.45,9.22C42.55,174,37.55,172.5,36.87,168.93Zm282-68.48c-3.93,4.2-.3,6.14.86,9.24C323.27,106,319.8,104,318.87,100.45ZM82.64,239.69l.42-1.3a28.45,28.45,0,0,0-3.13-4.53c-.43-.44-1.93.18-2.94.31a26.65,26.65,0,0,0,2.59,4.7C80.13,239.53,81.59,239.44,82.64,239.69Zm72.21-41.37.61-1.27c-.89-.78-2-2.38-2.63-2.2-1.67.46-3.13,1.68-4.67,2.6l.49,1.42ZM281.46,43.44a60.2,60.2,0,0,0-2.86-5.84,2.64,2.64,0,0,0-2.33.17C275.41,39.32,278.58,43.17,281.46,43.44Zm4.22-9.23-1.51,1.37c1.45,1.73.86,5.48,4.16,5.39l1.41-1.28Z"/><line class="cls-2" x1="25.81" y1="198.74" x2="57.3" y2="242.72"/><line class="cls-2" x1="314.78" y1="34.21" x2="337.81" y2="81.74"/><text class="cls-3" transform="matrix(0.52, 0.85, -0.85, 0.52, 11.65, 13.57)"> </text><text class="cls-3" transform="translate(14.89 18.75) rotate(52.58)"> </text><text class="cls-3" transform="matrix(0.73, 0.69, -0.69, 0.73, 18.91, 24.19)">L</text><text class="cls-3" transform="translate(29.31 33.8) rotate(31.94)">e</text><text class="cls-3" transform="matrix(0.92, 0.38, -0.38, 0.92, 42.81, 41.92)">s</text><text class="cls-3" transform="translate(55.77 47.01) rotate(17.27)"> </text><text class="cls-3" transform="translate(61.17 48.78) rotate(13.13)">F</text><text class="cls-3" transform="translate(73.59 51.56) rotate(9.03)">i</text><text class="cls-3" transform="translate(81.54 52.8) rotate(6.26)">l</text><text class="cls-3" transform="translate(90.04 54.01) rotate(1.47)">m</text><text class="cls-3" transform="translate(114.45 54.36) rotate(-2.95)">s</text><text class="cls-3" transform="translate(127.66 53.61) rotate(-4.76)"> </text><text class="cls-3" transform="translate(132.85 53.26) rotate(-6.62)">d</text><text class="cls-3" transform="translate(148.85 51.37) rotate(-8.97)">e</text><text class="cls-3" transform="translate(162.74 49.12) rotate(-10.29)"> </text><text class="cls-3" transform="translate(167.62 48.29) rotate(-11.58)">P</text><text class="cls-3" transform="translate(182.64 45.16) rotate(-12.89)">l</text><text class="cls-3" transform="matrix(0.97, -0.24, 0.24, 0.97, 189.95, 43.52)">e</text><text class="cls-3" transform="translate(203.25 40.18) rotate(-15.01)">i</text><text class="cls-3" transform="translate(210.4 38.29) rotate(-16.03)">n</text><text class="cls-3" transform="translate(225.25 33.99) rotate(-16.87)"> </text><text class="cls-3" transform="translate(229.86 32.63) rotate(-17.64)">A</text><text class="cls-3" transform="translate(244.22 28.03) rotate(-18.45)">i</text><text class="cls-3" transform="translate(251.28 25.69) rotate(-19.11)">r</text></g></g></svg>